<svg xmlns="http://www.w3.org/2000/svg" viewBox="0 0 48 48"><defs><style>.cls-1{fill:#15a452;}</style></defs><title>icon_restaurant</title><g id="_18-レストラン_メニュー" data-name="18-レストラン/メニュー"><path class="cls-1" d="M38.8,1h0A8.8,8.8,0,0,0,30,9.8v8.06a8.78,8.78,0,0,0,4.41,7.61V46.61A1.39,1.39,0,0,0,35.83,48h3.09a1.39,1.39,0,0,0,1.39-1.39V1Z"/><path class="cls-1" d="M21.22,1.09a1.47,1.47,0,0,0-1.47,1.47V9.88h0v.5a1.47,1.47,0,0,1-2.94,0V2.56a1.47,1.47,0,0,0-2.94,0v7.82a1.47,1.47,0,0,1-2.94,0V2.56A1.47,1.47,0,0,0,8,2.56V9.88H8v4.4A7.33,7.33,0,0,0,12.41,21V46a2,2,0,0,0,2,2h2a2,2,0,0,0,2-2V21a7.33,7.33,0,0,0,4.4-6.68V2.56A1.47,1.47,0,0,0,21.22,1.09Z"/></g></svg>