<svg xmlns="http://www.w3.org/2000/svg" viewBox="0 0 48 48"><defs><style>.cls-1{fill:#a1c515;}</style></defs><title>icon_map</title><g id="_21-マップ" data-name="21-マップ"><path class="cls-1" d="M47,41.68,41.56,27.53a1.92,1.92,0,0,0-1.82-1.25H30.91l-1,2.74H39l4.8,12.32H4.25L9.06,29h9.1l-1-2.74H8.36a1.92,1.92,0,0,0-1.82,1.25L1.1,41.68a1.84,1.84,0,0,0,1.82,2.4H45.18A1.84,1.84,0,0,0,47,41.68Z"/><path class="cls-1" d="M29.81,3H18.29A4.22,4.22,0,0,0,14,7.11v11a4.22,4.22,0,0,0,4.32,4.11h1.87c.06.3.1.52.12.59l3.15,12.49c.21.83,1.08.83,1.29,0L28,22.17h1.79a4.22,4.22,0,0,0,4.32-4.11v-11A4.22,4.22,0,0,0,29.81,3Zm-.33,8.63L26.92,14l.58,3.34a.23.23,0,0,1-.34.23L24,16l-3.16,1.56a.23.23,0,0,1-.33-.23L21.15,14l-2.54-2.38a.22.22,0,0,1,.13-.37l3.52-.47,1.59-3a.24.24,0,0,1,.41,0l1.56,3,3.52.5A.22.22,0,0,1,29.48,11.63Z"/></g></svg>