<svg xmlns="http://www.w3.org/2000/svg" viewBox="0 0 48 48"><defs><style>.cls-1{fill:#18a4c6;}</style></defs><title>icon_program</title><g id="_22-その他プログラム" data-name="22-その他プログラム"><path class="cls-1" d="M39.4,26.75c.3-.35.6-.71.88-1.09l.06-.08c.27-.36.53-.73.78-1.11l.09-.14q.36-.56.69-1.14L42,23q.32-.57.61-1.17l.09-.19q.29-.59.54-1.2l.08-.19c.17-.41.32-.82.46-1.24l.05-.16c.14-.43.27-.86.38-1.29l0-.11c.11-.45.21-.9.29-1.35C46,8,41.14,3.45,34.42,2.27c-.47-.08-.93-.14-1.38-.19l-.44,0c-.31,0-.62,0-.93,0h-.21L31,2H30.6l-.79.07-.3,0q-.53.07-1.05.19l-.24.06c-.26.07-.52.14-.78.22l-.36.13L26.46,3l-.38.18-.56.3-.36.21c-.19.12-.37.24-.55.37l-.31.22c-.21.17-.42.35-.62.54L23.51,5a10,10,0,0,0-.72.79l-.2.26c-.16.21-.31.41-.46.64L21.91,7c-.13.21-.25.42-.36.64l-.21.42c-.11.23-.21.46-.31.71s-.12.29-.17.45-.18.55-.27.84-.09.27-.12.41c-.11.43-.22.88-.3,1.35h0a20.64,20.64,0,0,0-.3,3.92,23.5,23.5,0,0,0,1.22,7.08q.25.74.55,1.45A17.58,17.58,0,0,0,23,26.94q.2.3.4.59a12.12,12.12,0,0,0,1.83,2,9.48,9.48,0,0,0,1.11.84l-1.85,2.21a.89.89,0,0,0,.52,1.44l2.11.37a10.12,10.12,0,0,0,0,5.38c.59,2-.3,2.62-.45,2.7A1.33,1.33,0,0,0,27.83,45c1.11-.5,2.93-2.36,1.92-5.87a7.54,7.54,0,0,1,.06-4.18l2.53.45h.15a.89.89,0,0,0,.83-1.19l-1-2.71.48-.13.13,0a10.05,10.05,0,0,0,1-.38l.15-.07c.34-.15.67-.32,1-.5l.16-.09q.49-.29,1-.62l.15-.11q.48-.35.95-.74l.12-.1c.32-.27.63-.56.93-.86l.07-.08c.32-.32.63-.65.93-1Z"/><path class="cls-1" d="M18.15,31.64,18,31.5a10.75,10.75,0,0,0,2.72-3.22,20.51,20.51,0,0,1-1.53-2.93,25.69,25.69,0,0,1-1.66-14A18.58,18.58,0,0,1,18.13,9a8.83,8.83,0,0,0-1-.46l-.3-.11q-.41-.14-.83-.25l-.27-.07a10.71,10.71,0,0,0-1.12-.19l-.22,0q-.48,0-1-.05H13l-.78,0-.35,0c-.38,0-.76.09-1.14.15C5.07,9.07,1,13,2.21,19.79c.07.41.17.83.27,1.25,0,.14.08.28.12.42s.16.55.25.83.12.33.18.49.18.49.28.73.15.34.23.51.21.46.32.68l.27.52c.12.22.23.43.36.65l.31.51L5.2,27l.34.48L6,28l.37.46.45.52.39.42.48.48.41.38.51.42L9,31l.54.37.43.28c.19.11.38.21.57.31l.43.22c.2.09.41.16.61.24l.4.15.42.1-1,2.86a.89.89,0,0,0,.83,1.19h.15l2.53-.45a7.54,7.54,0,0,1,.06,4.18,1.33,1.33,0,0,0,2.56.74,10.12,10.12,0,0,0,0-5.38l2.11-.37A.89.89,0,0,0,20.14,34Z"/></g></svg>