<svg xmlns="http://www.w3.org/2000/svg" viewBox="0 0 48 48"><defs><style>.cls-1{fill:#18a4c6;}</style></defs><title>icon_event</title><g id="_14-イベント" data-name="14-イベント"><path class="cls-1" d="M27.6,8.06c.58-.82.41-1.35.25-1.59S27.28,5.85,26.3,6L19.46,7.41a2.92,2.92,0,0,1-2.64-1L12.66.76C12.06,0,11.51,0,11.23,0s-.76.35-.88,1.35l-.82,7a2.94,2.94,0,0,1-1.78,2.2L1.14,12.78C.18,13.1,0,13.63,0,13.92s.09.83,1,1.26l6.33,2.94a3,3,0,0,1,1.54,2.38l.08,7c0,1,.46,1.33.73,1.44A.93.93,0,0,0,10,29a1.62,1.62,0,0,0,1.16-.64l4.74-5.14a2.92,2.92,0,0,1,2.73-.73l6.66,2.09c1,.3,1.41,0,1.59-.25s.41-.73-.08-1.61l-3.4-6.12a3,3,0,0,1,.15-2.83Z"/><path class="cls-1" d="M33.58,35.36c.53-.56.45-1,.35-1.22s-.37-.56-1.14-.52L28,33.87A1.89,1.89,0,0,1,26.43,33l-2.28-4.26c-.37-.68-.8-.74-1-.71s-.64.19-.84.94L21,33.62a1.9,1.9,0,0,1-1.32,1.23L15,35.73c-.76.14-.95.55-1,.77s0,.68.62,1.1l4,2.64a1.92,1.92,0,0,1,.75,1.65l-.63,4.8c-.1.77.22,1.08.42,1.19a.8.8,0,0,0,.44.1,1.38,1.38,0,0,0,.79-.36l3.72-3.05a1.87,1.87,0,0,1,1.79-.21l4.32,2.09c.69.33,1.08.12,1.25,0s.41-.53.14-1.26l-1.72-4.53a1.93,1.93,0,0,1,.35-1.79Z"/><path class="cls-1" d="M47.45,22.56l-3-1.87a1.27,1.27,0,0,1-.52-1.07l.39-3.53a.91.91,0,0,0-.4-1,.9.9,0,0,0-1.05.22l-2.7,2.3a1.26,1.26,0,0,1-1.17.16l-3.22-1.46a.9.9,0,0,0-1.07.07.91.91,0,0,0-.11,1.08l1.34,3.29a1.28,1.28,0,0,1-.21,1.17l-2.38,2.63a.91.91,0,0,0-.26,1.05,1,1,0,0,0,1,.44l3.53-.26a1.28,1.28,0,0,1,1,.56l1.75,3.09a.93.93,0,0,0,.85.58h.06c.2,0,.57-.17.72-.81l.84-3.45a1.27,1.27,0,0,1,.85-.82l3.46-.72c.64-.13.79-.49.83-.69A.91.91,0,0,0,47.45,22.56Z"/></g></svg>