<svg version="1.1" xmlns="http://www.w3.org/2000/svg" xmlns:xlink="http://www.w3.org/1999/xlink" x="0px"
	 y="0px" viewBox="0 0 39.2 40.7" style="enable-background:new 0 0 39.2 40.7;" xml:space="preserve">
<style type="text/css">
	.st0{fill:#dd1b7d;}
</style>
<path id="menu_parade_tdl.svg" class="st0" d="M26.9,17.9c-0.2-0.5-0.7-0.8-1.2-0.7l-12,4.6c0-0.4,0.1-0.8,0.2-1.1
	c0.1-0.4,0.2-0.9,0.2-1.4l-0.9-4.9c-0.4-1.3-1.7-2-2.9-1.7l-0.3,0.1c-0.7,0.1-1.3,0.5-1.7,1c0,0-0.1,0-0.1,0l-4.3,3.6
	c-0.5,0.4-0.5,1-0.2,1.5c0,0.1,0.1,0.1,0.1,0.2c0,0,0.1,0,0.1,0.1l3.7,3.9c0.1,0.1,0.3,0.2,0.5,0.2l1.7,16.5c0.2,0.7,1,1.1,1.7,0.8
	c0.5-0.2,0.8-0.5,0.9-1l-0.4-14c0.1,0,0.2-0.1,0.2-0.1c0.5,0.1,1.1,0.1,1.5-0.1l12.7-6.1C27.1,19,27.2,18.4,26.9,17.9z M8.9,20.1
	c-0.3,0.3-0.5,0.6-0.6,1l-1.7-2.4c0,0-0.1-0.1-0.1-0.1l1.6-1.4l0,0c0,0,0-0.1,0.1-0.1l0.1-0.1C8.7,18,8.9,19.1,8.9,20.1L8.9,20.1z
	 M5.4,6.5c0,0.5,0.3,1,0.8,1.2C6,8.2,5.9,8.7,5.9,9.1c0,1.9,1.5,3.4,3.4,3.5s3.4-1.5,3.5-3.4s-1.5-3.4-3.4-3.5c-0.5,0-1,0.1-1.5,0.3
	C7.7,5.5,7.2,5.2,6.6,5.2c-0.1,0-0.1,0-0.2,0C6.7,4,6.5,2.8,5.9,1.7C4.6,0,4.7-0.4,3.9,0.3C3.6,0.6,4,1.9,4.5,3.2
	c-0.4-0.5-1-0.8-1.5-1C0.4,1.3,0.2,0.9,0,2.1C-0.2,3,3.3,5.1,5.4,6.4C5.4,6.4,5.4,6.5,5.4,6.5L5.4,6.5z M17.9,6.5
	c1.3,0.2,2.4,0.9,2.9,2c0.3,0.2,0.6,0.4,0.8,0.5c0,0,0,0.1,0,0.1c0,0.4,0.3,0.8,0.7,1c-0.6,1.4,0,3,1.4,3.7c1.4,0.6,3,0,3.7-1.4
	c0.6-1.4,0-3-1.4-3.7c-0.4-0.2-0.8-0.3-1.2-0.3c-0.4,0-0.8,0.1-1.2,0.3c-0.2-0.4-0.5-0.7-1-0.7c0,0-0.1,0-0.1,0c0.2-1,0.1-2-0.4-2.8
	c-1.1-1.4-1-1.7-1.6-1.1c-0.3,0.3,0,1.2,0.4,2.3c-0.3-0.4-0.8-0.7-1.3-0.8c-2.1-0.7-2.2-1-2.4,0C17.3,6,17.6,6.3,17.9,6.5L17.9,6.5z
	 M39.1,18.4c-0.1-0.4-0.6-0.7-1-0.5L34,19.4c-0.1,0.3-0.4,0.5-0.6,0.6l-9.3,4.4l1.2,11.6c0.2,0.6,0.8,0.9,1.4,0.7
	c0.4-0.1,0.6-0.4,0.7-0.8l-0.3-11.4c0.1,0,0.1,0,0.2-0.1c0.4,0.1,0.9,0.1,1.2-0.1l10.3-4.9C39.2,19.2,39.3,18.8,39.1,18.4L39.1,18.4
	z M15.7,19.9L15.1,19l0,0.1c0,0,0,0.1,0,0.1c0,0.3,0,0.6,0,0.8L15.7,19.9z M25.5,14.2l-0.2,0c-0.5,0.1-1,0.4-1.4,0.8
	c0,0-0.1,0-0.1,0L22,16.7l0.1,0.7l3.2-1.2c1.1-0.3,2.2,0.2,2.6,1.3c0.1,0.3,0.2,0.6,0.2,0.9l0.3-0.1l-0.5-2.6
	C27.6,14.6,26.6,14,25.5,14.2L25.5,14.2z M16.4,17.5C16.4,17.5,16.4,17.5,16.4,17.5l0.1-0.1c0.3,0.6,0.5,1.3,0.6,2l4.3-1.7l-0.5-2.6
	c-0.3-1.1-1.5-1.8-2.6-1.5l-0.3,0c-0.6,0.1-1.1,0.4-1.5,0.9c0,0-0.1,0-0.1,0l-1.8,1.5l0.5,2.5L16.4,17.5L16.4,17.5z M33.3,18.1
	c-0.1-0.5-0.6-0.7-1.1-0.6L28,19.2c-0.2,0.5-0.5,0.9-1,1.1l-10.4,5L18,37.8c0.2,0.6,0.9,1,1.5,0.8c0.4-0.1,0.7-0.5,0.8-0.9L20,25.1
	c0.1,0,0.1-0.1,0.2-0.1c0.5,0.1,1,0.1,1.4-0.1L33,19.4C33.4,19.1,33.6,18.6,33.3,18.1L33.3,18.1z M13.5,7.5c0.1,0.1,0.3,0.2,0.4,0.2
	c0,0,0,0.1,0,0.1c0,0.5,0.3,0.9,0.7,1.1c-0.7,1.5,0,3.4,1.5,4.1c1.5,0.7,3.4,0,4.1-1.5c0.7-1.5,0-3.4-1.5-4.1
	c-0.4-0.2-0.8-0.3-1.3-0.3c-0.4,0-0.9,0.1-1.3,0.3C16,7,15.5,6.7,15.1,6.7c-0.1,0-0.1,0-0.2,0c0.2-1.1,0.1-2.2-0.5-3.1
	c-1.2-1.6-1.2-1.9-1.8-1.3c-0.3,0.3,0,1.4,0.5,2.5c-0.4-0.4-0.9-0.7-1.4-0.9C9.4,3.2,9.3,2.9,9.1,4c0,0.3,0.1,0.5,0.3,0.7
	C11.2,4.7,12.9,5.8,13.5,7.5L13.5,7.5z"/>
</svg>
