<svg xmlns="http://www.w3.org/2000/svg" viewBox="0 0 48 48"><defs><style>.cls-1{fill:#a1c515;fill-rule:evenodd;}</style></defs><title>icon_ticket</title><g id="_08-チケット" data-name="08-チケット"><path class="cls-1" d="M47.73,20.28l-10-18.22A1.94,1.94,0,0,0,35,1.28L13.32,14.51H39.47a2.2,2.2,0,0,1,2.13,2.25v9.69L47,23.15A2.17,2.17,0,0,0,47.73,20.28Z"/><path class="cls-1" d="M36.27,17.88H2.13A2.19,2.19,0,0,0,0,20.13V42.64a2.2,2.2,0,0,0,2.13,2.25H36.27a2.19,2.19,0,0,0,2.13-2.25V20.13A2.2,2.2,0,0,0,36.27,17.88ZM25.7,30.34l-.17.14-.21.14a2.38,2.38,0,0,1-1.1.31H24.1a2.84,2.84,0,0,1-1.26-.32,4.82,4.82,0,0,1,.78,2.64,4.54,4.54,0,0,1-4.42,4.66,4.54,4.54,0,0,1-4.42-4.66,4.82,4.82,0,0,1,.78-2.64,2.84,2.84,0,0,1-1.26.32h-.11a2.38,2.38,0,0,1-1.1-.31l-.21-.14-.17-.14a3.13,3.13,0,0,1-.11-4.24,3.54,3.54,0,0,1,.28-.32l.21-.19a2.64,2.64,0,0,1,3.47-.14A3,3,0,0,1,17,29.21a4.22,4.22,0,0,1,4.43,0,3,3,0,0,1,.43-3.76,2.64,2.64,0,0,1,3.47.14l.21.19a3.54,3.54,0,0,1,.28.32A3.13,3.13,0,0,1,25.7,30.34Z"/></g></svg>