<svg xmlns="http://www.w3.org/2000/svg" viewBox="0 0 48 48"><defs><style>.cls-1{fill:#07c;}</style></defs><title>icon_top</title><g id="_04-HOME" data-name="04-HOME"><path class="cls-1" d="M46.86,19l-7.11-5.23V5a2,2,0,0,0-.34-1.12,2,2,0,0,0-.54-.54A2,2,0,0,0,37.75,3h-6.5a2,2,0,0,0-1.12.34,2,2,0,0,0-.54.54A2,2,0,0,0,29.25,5V6.06l-3.3-2.43A3.27,3.27,0,0,0,25,3.16a3.31,3.31,0,0,0-2,0,3.27,3.27,0,0,0-.93.48L1.14,19a2.88,2.88,0,0,0-.66.67,2.63,2.63,0,0,0-.37.78,2.69,2.69,0,0,0-.1.83,2.83,2.83,0,0,0,.15.81A2.74,2.74,0,0,0,2.33,24a3.07,3.07,0,0,0,.49,0H7.5V40.89C7.5,43.16,9,45,10.88,45h9.9V30.45a3.22,3.22,0,0,1,6.44,0V45h9.9c1.87,0,3.38-1.84,3.38-4.11V24h4.68A2.76,2.76,0,0,0,46.86,19Z"/></g></svg>