<svg version="1.1" id="レイヤー_1" xmlns="http://www.w3.org/2000/svg" xmlns:xlink="http://www.w3.org/1999/xlink" x="0px"
	 y="0px" viewBox="0 0 40 35" style="enable-background:new 0 0 40 35;" xml:space="preserve">
<style type="text/css">
	.st0{fill:#15A452;}
</style>
<path id="icon_help" class="st0" d="M31,5.4c-1.2-0.1-2.4,0.1-3.6,0.5C25.4,1,19.8-1.3,15,0.7c-3,1.2-5.2,3.9-5.8,7.1
	c-0.3-0.1-0.6-0.1-1-0.1c-4.3-0.2-8,3-8.2,7.3c-0.2,3.9,2.4,7.3,6.2,8.1c0.4,4.3,4.3,7.4,8.5,7c1-0.1,2-0.4,2.9-0.9
	c0.4,0.5,0.8,1,1.3,1.5l3.9,4.1c0.1,0.2,0.4,0.3,0.6,0.3c0.5,0,0.9-0.3,0.9-0.8c0-0.2,0-0.4-0.1-0.5c-1-1.7-1.8-3.5-2.4-5.3
	c3.1,2,7.3,1.2,9.3-1.9c0.4-0.6,0.7-1.3,0.9-2c5.2-0.8,8.7-5.7,7.9-10.9C39.2,9,35.5,5.6,31,5.4z M21.3,24.3c-0.8,0.8-2.2,0.8-3,0
	c-0.8-0.8-0.8-2.2,0-3c0.4-0.4,0.9-0.6,1.5-0.6c0.6,0,1.1,0.2,1.5,0.6C22.2,22.1,22.2,23.5,21.3,24.3L21.3,24.3z M24.2,14.6
	c-0.5,0.6-1.3,1-2.1,1.1l0,0c0,0,0,0,0,0c-0.1,0-0.1,0-0.2,0c-0.1,0-0.1,0.1-0.1,0.2l0,2c0,0,0,0.1,0,0.1c0,0.5-0.2,1-0.5,1.3
	c-0.3,0.3-0.8,0.5-1.3,0.5c-0.5,0-1-0.2-1.3-0.5c-0.4-0.3-0.5-0.8-0.5-1.3c0-0.1,0-0.1,0-0.2v-3.3c0-0.5,0.4-0.8,0.8-0.8h0.3
	c0,0,0.1,0,0.1,0h0l0,0c0.6,0,1.2-0.1,1.7-0.5c0.4-0.3,0.6-0.8,0.6-1.4c0-0.5-0.2-0.9-0.5-1.2c-0.3-0.3-0.7-0.5-1.2-0.5
	c-0.4,0-0.8,0.1-1.2,0.4c-0.3,0.3-0.4,0.7-0.5,1.1v0c0,0.5-0.2,0.9-0.5,1.3c-0.7,0.7-1.9,0.7-2.6,0c-0.3-0.3-0.5-0.8-0.5-1.3
	c0-0.1,0-0.3,0-0.4c0.1-1.1,0.6-2.2,1.4-2.9c1.1-0.9,2.5-1.3,3.9-1.2c1.3-0.1,2.6,0.4,3.6,1.3c0.9,0.9,1.4,2.1,1.3,3.4
	C25.2,12.8,24.9,13.8,24.2,14.6z"/>
</svg>
