<svg xmlns="http://www.w3.org/2000/svg" viewBox="0 0 48 48"><defs><style>.cls-1{fill:#8d21b0;}</style></defs><title>icon_calendar</title><g id="_07-運営カレンダー" data-name="07-運営カレンダー"><path class="cls-1" d="M42.47,9.47h-6V6.84a2.84,2.84,0,1,0-5.68,0V9.47H17.54V6.84a2.84,2.84,0,1,0-5.68,0V9.47H5.53A2.52,2.52,0,0,0,3,12V41a2.53,2.53,0,0,0,2.53,2.53H42.47A2.52,2.52,0,0,0,45,41V12A2.52,2.52,0,0,0,42.47,9.47ZM16,40.56H6v-10H16Zm0-13H6v-10H16Zm13,13H19v-10H29Zm0-13H19v-10H29Zm13,13H32v-10H42Zm0-13H32v-10H42Z"/></g></svg>