<svg xmlns="http://www.w3.org/2000/svg" viewBox="0 0 48 48"><defs><style>.cls-1{fill:#8d21b0;}</style></defs><title>icon_service</title><g id="_20-サービス施設" data-name="20-サービス施設"><path class="cls-1" d="M46,21H39V16.94a2,2,0,0,0-2-2H30.5a2,2,0,0,0-2,2V21h-9V16.94a2,2,0,0,0-2-2H11a2,2,0,0,0-2,2V21H2a2,2,0,0,0-2,2v6.5a2,2,0,0,0,2,2H28.5v13a2,2,0,0,0,4,0V33.13H35V44.5a2,2,0,0,0,4,0v-13h7a2,2,0,0,0,2-2V23A2,2,0,0,0,46,21ZM3,28.5V24H28.5v4.5Zm42,0H39V24h6Z"/><circle class="cls-1" cx="14.25" cy="8.25" r="5.25"/><circle class="cls-1" cx="33.75" cy="8.25" r="5.25" transform="translate(4.05 26.28) rotate(-45)"/></g></svg>